<mxfile host="Electron" modified="2023-10-06T21:12:12.039Z" agent="Mozilla/5.0 (Windows NT 10.0; Win64; x64) AppleWebKit/537.36 (KHTML, like Gecko) draw.io/21.6.8 Chrome/114.0.5735.289 Electron/25.5.0 Safari/537.36" etag="3zTw06rMwhvQ_RkbQgS1" version="21.6.8" type="device">
  <diagram name="Page-1" id="k12-09EWE57X6hbqYvfw">
    <mxGraphModel dx="1036" dy="606" grid="1" gridSize="10" guides="1" tooltips="1" connect="1" arrows="1" fold="1" page="1" pageScale="1" pageWidth="1100" pageHeight="850" math="0" shadow="0">
      <root>
        <mxCell id="0" />
        <mxCell id="1" parent="0" />
        <mxCell id="gX6y4CNSEQzN7Oy9Zn9w-74" value="" style="rounded=0;whiteSpace=wrap;html=1;" parent="1" vertex="1">
          <mxGeometry x="740" y="285" width="460" height="240" as="geometry" />
        </mxCell>
        <mxCell id="gX6y4CNSEQzN7Oy9Zn9w-17" value="" style="rounded=0;whiteSpace=wrap;html=1;fillColor=none;" parent="1" vertex="1">
          <mxGeometry x="140" y="450" width="120" height="100" as="geometry" />
        </mxCell>
        <mxCell id="gX6y4CNSEQzN7Oy9Zn9w-15" value="" style="rounded=0;whiteSpace=wrap;html=1;fillColor=none;" parent="1" vertex="1">
          <mxGeometry x="140" y="240" width="120" height="100" as="geometry" />
        </mxCell>
        <mxCell id="gX6y4CNSEQzN7Oy9Zn9w-11" value="" style="shape=actor;whiteSpace=wrap;html=1;" parent="1" vertex="1">
          <mxGeometry x="180" y="250" width="40" height="60" as="geometry" />
        </mxCell>
        <mxCell id="gX6y4CNSEQzN7Oy9Zn9w-12" value="" style="shape=actor;whiteSpace=wrap;html=1;" parent="1" vertex="1">
          <mxGeometry x="180" y="460" width="40" height="60" as="geometry" />
        </mxCell>
        <mxCell id="gX6y4CNSEQzN7Oy9Zn9w-13" value="&lt;b&gt;Patients&lt;/b&gt;" style="text;html=1;strokeColor=none;fillColor=none;align=center;verticalAlign=middle;whiteSpace=wrap;rounded=0;" parent="1" vertex="1">
          <mxGeometry x="170" y="310" width="60" height="30" as="geometry" />
        </mxCell>
        <mxCell id="gX6y4CNSEQzN7Oy9Zn9w-14" value="&lt;b&gt;Doctors and Administrators&lt;/b&gt;" style="text;html=1;strokeColor=none;fillColor=none;align=center;verticalAlign=middle;whiteSpace=wrap;rounded=0;" parent="1" vertex="1">
          <mxGeometry x="170" y="520" width="60" height="30" as="geometry" />
        </mxCell>
        <mxCell id="gX6y4CNSEQzN7Oy9Zn9w-19" style="edgeStyle=orthogonalEdgeStyle;rounded=0;orthogonalLoop=1;jettySize=auto;html=1;exitX=1;exitY=0.5;exitDx=0;exitDy=0;" parent="1" source="gX6y4CNSEQzN7Oy9Zn9w-15" target="gX6y4CNSEQzN7Oy9Zn9w-18" edge="1">
          <mxGeometry relative="1" as="geometry" />
        </mxCell>
        <mxCell id="gX6y4CNSEQzN7Oy9Zn9w-45" style="edgeStyle=orthogonalEdgeStyle;rounded=0;orthogonalLoop=1;jettySize=auto;html=1;exitX=0.5;exitY=0;exitDx=0;exitDy=0;entryX=0.556;entryY=0.733;entryDx=0;entryDy=0;entryPerimeter=0;" parent="1" source="gX6y4CNSEQzN7Oy9Zn9w-15" edge="1">
          <mxGeometry relative="1" as="geometry">
            <mxPoint x="170.07999999999993" y="149.95000000000005" as="targetPoint" />
          </mxGeometry>
        </mxCell>
        <mxCell id="gX6y4CNSEQzN7Oy9Zn9w-20" style="edgeStyle=orthogonalEdgeStyle;rounded=0;orthogonalLoop=1;jettySize=auto;html=1;exitX=1;exitY=0.5;exitDx=0;exitDy=0;entryX=0.5;entryY=1;entryDx=0;entryDy=0;entryPerimeter=0;" parent="1" source="gX6y4CNSEQzN7Oy9Zn9w-17" target="gX6y4CNSEQzN7Oy9Zn9w-18" edge="1">
          <mxGeometry relative="1" as="geometry" />
        </mxCell>
        <mxCell id="gX6y4CNSEQzN7Oy9Zn9w-47" style="edgeStyle=orthogonalEdgeStyle;rounded=0;orthogonalLoop=1;jettySize=auto;html=1;exitX=0.5;exitY=1;exitDx=0;exitDy=0;entryX=0.76;entryY=0.333;entryDx=0;entryDy=0;entryPerimeter=0;" parent="1" source="gX6y4CNSEQzN7Oy9Zn9w-17" edge="1">
          <mxGeometry relative="1" as="geometry">
            <mxPoint x="210.00000000000023" y="619.95" as="targetPoint" />
          </mxGeometry>
        </mxCell>
        <mxCell id="gX6y4CNSEQzN7Oy9Zn9w-59" style="edgeStyle=orthogonalEdgeStyle;rounded=0;orthogonalLoop=1;jettySize=auto;html=1;exitX=1;exitY=0.5;exitDx=0;exitDy=0;exitPerimeter=0;entryX=0;entryY=0.5;entryDx=0;entryDy=0;" parent="1" source="gX6y4CNSEQzN7Oy9Zn9w-18" target="gX6y4CNSEQzN7Oy9Zn9w-31" edge="1">
          <mxGeometry relative="1" as="geometry">
            <mxPoint x="519.9999999999998" y="445" as="targetPoint" />
          </mxGeometry>
        </mxCell>
        <mxCell id="gX6y4CNSEQzN7Oy9Zn9w-18" value="Login" style="html=1;whiteSpace=wrap;strokeColor=none;fillColor=#0079D6;labelPosition=center;verticalLabelPosition=middle;verticalAlign=top;align=center;fontSize=12;outlineConnect=0;spacingTop=-6;fontColor=#FFFFFF;sketch=0;shape=mxgraph.sitemap.login;" parent="1" vertex="1">
          <mxGeometry x="330" y="360" width="120" height="70" as="geometry" />
        </mxCell>
        <mxCell id="gX6y4CNSEQzN7Oy9Zn9w-67" style="edgeStyle=orthogonalEdgeStyle;rounded=0;orthogonalLoop=1;jettySize=auto;html=1;exitX=0.5;exitY=0;exitDx=0;exitDy=0;entryX=0.556;entryY=0.667;entryDx=0;entryDy=0;entryPerimeter=0;" parent="1" source="gX6y4CNSEQzN7Oy9Zn9w-31" edge="1">
          <mxGeometry relative="1" as="geometry">
            <mxPoint x="590.0799999999999" y="170.05000000000018" as="targetPoint" />
          </mxGeometry>
        </mxCell>
        <mxCell id="gX6y4CNSEQzN7Oy9Zn9w-71" style="edgeStyle=orthogonalEdgeStyle;rounded=0;orthogonalLoop=1;jettySize=auto;html=1;exitX=0.5;exitY=1;exitDx=0;exitDy=0;entryX=0.5;entryY=0;entryDx=0;entryDy=0;" parent="1" source="gX6y4CNSEQzN7Oy9Zn9w-31" target="gX6y4CNSEQzN7Oy9Zn9w-36" edge="1">
          <mxGeometry relative="1" as="geometry" />
        </mxCell>
        <mxCell id="gX6y4CNSEQzN7Oy9Zn9w-31" value="" style="rounded=0;whiteSpace=wrap;html=1;" parent="1" vertex="1">
          <mxGeometry x="550" y="365" width="120" height="60" as="geometry" />
        </mxCell>
        <mxCell id="gX6y4CNSEQzN7Oy9Zn9w-32" value="&lt;b&gt;Website&lt;br&gt;Angular&lt;br&gt;&lt;/b&gt;" style="text;html=1;strokeColor=none;fillColor=none;align=center;verticalAlign=middle;whiteSpace=wrap;rounded=0;" parent="1" vertex="1">
          <mxGeometry x="580" y="380" width="60" height="30" as="geometry" />
        </mxCell>
        <mxCell id="gX6y4CNSEQzN7Oy9Zn9w-68" style="edgeStyle=orthogonalEdgeStyle;rounded=0;orthogonalLoop=1;jettySize=auto;html=1;exitX=0.5;exitY=0;exitDx=0;exitDy=0;entryX=0.5;entryY=1;entryDx=0;entryDy=0;" parent="1" source="gX6y4CNSEQzN7Oy9Zn9w-34" target="gX6y4CNSEQzN7Oy9Zn9w-83" edge="1">
          <mxGeometry relative="1" as="geometry">
            <mxPoint x="810.0799999999999" y="190" as="targetPoint" />
          </mxGeometry>
        </mxCell>
        <mxCell id="gX6y4CNSEQzN7Oy9Zn9w-34" value="&lt;b&gt;Back end&lt;br&gt;Python flask&lt;br&gt;&lt;/b&gt;" style="rounded=0;whiteSpace=wrap;html=1;" parent="1" vertex="1">
          <mxGeometry x="770" y="365" width="120" height="60" as="geometry" />
        </mxCell>
        <mxCell id="gX6y4CNSEQzN7Oy9Zn9w-36" value="&lt;b&gt;Virtual sessions&lt;br&gt;sockets&lt;br&gt;&lt;/b&gt;" style="rounded=0;whiteSpace=wrap;html=1;" parent="1" vertex="1">
          <mxGeometry x="550" y="470" width="120" height="60" as="geometry" />
        </mxCell>
        <mxCell id="gX6y4CNSEQzN7Oy9Zn9w-60" value="" style="sketch=0;points=[[0,0,0],[0.25,0,0],[0.5,0,0],[0.75,0,0],[1,0,0],[0,1,0],[0.25,1,0],[0.5,1,0],[0.75,1,0],[1,1,0],[0,0.25,0],[0,0.5,0],[0,0.75,0],[1,0.25,0],[1,0.5,0],[1,0.75,0]];outlineConnect=0;fontColor=#232F3E;gradientColor=#4D72F3;gradientDirection=north;fillColor=#3334B9;strokeColor=#ffffff;dashed=0;verticalLabelPosition=bottom;verticalAlign=top;align=center;html=1;fontSize=12;fontStyle=0;aspect=fixed;shape=mxgraph.aws4.resourceIcon;resIcon=mxgraph.aws4.documentdb_with_mongodb_compatibility;" parent="1" vertex="1">
          <mxGeometry x="1030" y="330" width="150" height="150" as="geometry" />
        </mxCell>
        <mxCell id="gX6y4CNSEQzN7Oy9Zn9w-65" value="" style="endArrow=classic;startArrow=classic;html=1;rounded=0;exitX=1;exitY=0.5;exitDx=0;exitDy=0;entryX=0;entryY=0.5;entryDx=0;entryDy=0;" parent="1" source="gX6y4CNSEQzN7Oy9Zn9w-31" target="gX6y4CNSEQzN7Oy9Zn9w-34" edge="1">
          <mxGeometry width="50" height="50" relative="1" as="geometry">
            <mxPoint x="760" y="430" as="sourcePoint" />
            <mxPoint x="810" y="380" as="targetPoint" />
          </mxGeometry>
        </mxCell>
        <mxCell id="gX6y4CNSEQzN7Oy9Zn9w-75" value="" style="endArrow=classic;startArrow=classic;html=1;rounded=0;exitX=1;exitY=0.5;exitDx=0;exitDy=0;" parent="1" source="gX6y4CNSEQzN7Oy9Zn9w-34" edge="1">
          <mxGeometry width="50" height="50" relative="1" as="geometry">
            <mxPoint x="950" y="460" as="sourcePoint" />
            <mxPoint x="1030" y="395" as="targetPoint" />
          </mxGeometry>
        </mxCell>
        <mxCell id="gX6y4CNSEQzN7Oy9Zn9w-76" value="Register/Login&amp;nbsp;&lt;br style=&quot;border-color: var(--border-color);&quot;&gt;Register patients&lt;br style=&quot;border-color: var(--border-color);&quot;&gt;Upload/dwonload medical files&lt;br style=&quot;border-color: var(--border-color);&quot;&gt;Host/Join virtual clones&lt;br style=&quot;border-color: var(--border-color);&quot;&gt;Manage appointments" style="ellipse;whiteSpace=wrap;html=1;" parent="1" vertex="1">
          <mxGeometry x="80" y="610" width="240" height="120" as="geometry" />
        </mxCell>
        <mxCell id="gX6y4CNSEQzN7Oy9Zn9w-79" value="Login&lt;br style=&quot;border-color: var(--border-color);&quot;&gt;view own medical files&lt;br style=&quot;border-color: var(--border-color);&quot;&gt;Join virtual clones" style="ellipse;whiteSpace=wrap;html=1;" parent="1" vertex="1">
          <mxGeometry x="50" y="50" width="240" height="120" as="geometry" />
        </mxCell>
        <mxCell id="gX6y4CNSEQzN7Oy9Zn9w-81" value="Make appoinmetns&lt;br style=&quot;border-color: var(--border-color);&quot;&gt;Join virtual sessions&lt;br style=&quot;border-color: var(--border-color);&quot;&gt;view medical files" style="ellipse;whiteSpace=wrap;html=1;" parent="1" vertex="1">
          <mxGeometry x="460" y="70" width="240" height="120" as="geometry" />
        </mxCell>
        <mxCell id="gX6y4CNSEQzN7Oy9Zn9w-83" value="Appoinment&lt;br style=&quot;border-color: var(--border-color);&quot;&gt;User management&lt;br style=&quot;border-color: var(--border-color);&quot;&gt;Authentication&lt;br style=&quot;border-color: var(--border-color);&quot;&gt;Authorization&lt;br style=&quot;border-color: var(--border-color);&quot;&gt;Email sevices" style="ellipse;whiteSpace=wrap;html=1;" parent="1" vertex="1">
          <mxGeometry x="820" y="60" width="240" height="120" as="geometry" />
        </mxCell>
        <mxCell id="kOIFKLiuHeJHBpZjCEgA-1" value="&lt;b&gt;Mongo DB&lt;/b&gt;" style="text;html=1;strokeColor=none;fillColor=none;align=center;verticalAlign=middle;whiteSpace=wrap;rounded=0;" vertex="1" parent="1">
          <mxGeometry x="1070" y="480" width="70" height="30" as="geometry" />
        </mxCell>
      </root>
    </mxGraphModel>
  </diagram>
</mxfile>
